#!OML:ASF H:\ManfredObstacles\Project 1\Capture day 2\Session 1\male.ASF
:FULLY-SPECIFIED
:DEGREES
193
root 10.9993 16.3107 -17.7406 -172.575 54.1399 175.768
lowerback -1.5103 3.74115 -0.898248
upperback -0.607173 5.01213 -0.803731
thorax 0.217177 2.51017 -0.238201
lowerneck -32.6448 -3.41459 0.728717
upperneck 41.4616 -4.55186 0.877962
head 23.8285 -0.701437 -0.716127
rclavicle -6.25675e-014 2.38542e-014
rhumerus -46.2134 17.968 -96.0795
rradius 89.4786
rwrist 9.4568
rhand -10.0818 -1.50539
rfingers 7.12502
rthumb 15.9048 -30.8723
lclavicle -6.25675e-014 2.38542e-014
lhumerus -67.6067 -22.1528 99.5713
lradius 102.204
lwrist -18.4123
lhand -13.7191 5.31648
lfingers 7.12502
lthumb 12.4 34.9287
rfemur 1.95812 3.78631 24.8918
rtibia 26.4765
rfoot 9.58416 -9.62874
rtoes -24.473
lfemur -40.6975 -4.14808 -20.8574
ltibia 58.0101
lfoot 13.7983 18.162
ltoes -6.67944
194
root 11.268 16.408 -17.9613 -172.751 54.0748 175.225
lowerback -1.98204 3.91546 -1.22703
upperback -0.74516 5.26345 -1.08327
thorax 0.33542 2.63835 -0.307768
lowerneck -32.6754 -3.6558 0.557386
upperneck 41.49 -4.98103 1.18037
head 23.8982 -0.825614 -0.637399
rclavicle -6.80341e-014 8.74653e-015
rhumerus -46.8856 18.7448 -96.5514
rradius 90.1717
rwrist 9.73726
rhand -9.84521 -1.05021
rfingers 7.12502
rthumb 16.1327 -30.3988
lclavicle -6.80341e-014 8.74653e-015
lhumerus -68.2331 -22.528 99.4633
lradius 102.689
lwrist -18.2459
lhand -13.6744 5.37033
lfingers 7.12502
lthumb 12.4431 34.9799
rfemur 3.19892 3.79745 24.353
rtibia 24.9418
rfoot 12.789 -9.12265
rtoes -22.9495
lfemur -40.5934 -4.79173 -21.0392
ltibia 53.7442
lfoot 13.873 17.0842
ltoes -6.81953
195
root 11.5382 16.4975 -18.1825 -172.965 54.0542 174.658
lowerback -2.45844 4.07265 -1.59786
upperback -0.871503 5.49865 -1.35575
thorax 0.46306 2.75893 -0.344261
lowerneck -32.6955 -3.85805 0.426884
upperneck 41.5031 -5.34717 1.42738
head 23.9478 -0.930908 -0.579416
rclavicle -8.3738e-014 -1.82882e-014
rhumerus -47.598 19.5299 -96.9967
rradius 90.8443
rwrist 10.0705
rhand -9.63289 -0.644281
rfingers 7.12502
rthumb 16.3371 -29.9762
lclavicle -8.3738e-014 -1.82882e-014
lhumerus -68.8087 -22.8694 99.3501
lradius 103.161
lwrist -18.0401
lhand -13.6221 5.51122
lfingers 7.12502
lthumb 12.4935 35.1178
rfemur 4.34096 3.90344 23.828
rtibia 23.65
rfoot 15.9159 -8.80471
rtoes -20.9513
lfemur -40.3272 -5.38057 -21.2177
ltibia 49.3876
lfoot 13.9856 15.7675
ltoes -6.99772
196
root 11.8094 16.5792 -18.404 -173.181 54.0865 174.122
lowerback -2.92456 4.21993 -1.97088
upperback -0.988884 5.72585 -1.60675
thorax 0.590844 2.87574 -0.35632
lowerneck -32.719 -4.04758 0.273028
upperneck 41.5153 -5.66652 1.64959
head 24.0006 -1.02855 -0.517818
rclavicle -9.78021e-014 2.14687e-014
rhumerus -48.3331 20.3058 -97.4004
rradius 91.4906
rwrist 10.3748
rhand -9.43087 -0.262377
rfingers 7.12502
rthumb 16.5317 -29.5781
lclavicle -9.78021e-014 2.14687e-014
lhumerus -69.3265 -23.1679 99.2428
lradius 103.622
lwrist -17.8312
lhand -13.5495 5.73115
lfingers 7.12502
lthumb 12.5635 35.3334
rfemur 5.35057 4.06553 23.3458
rtibia 22.6768
rfoot 18.8693 -8.62161
rtoes -18.6395
lfemur -39.9105 -5.91047 -21.3626
ltibia 45.0005
lfoot 14.1364 14.2675
ltoes -7.23601
197
root 12.0807 16.6523 -18.6254 -173.347 54.168 173.671
lowerback -3.37906 4.36239 -2.31458
upperback -1.09773 5.95 -1.83121
thorax 0.719964 2.99095 -0.356198
lowerneck -32.7431 -4.218 0.126871
upperneck 41.5394 -5.94201 1.83859
head 24.0635 -1.114 -0.463484
rclavicle 5.34979e-014 -1.11319e-014
rhumerus -49.0756 21.0242 -97.7609
rradius 92.1157
rwrist 10.6432
rhand -9.22108 0.0827129
rfingers 7.12502
rthumb 16.7336 -29.2161
lclavicle 5.34979e-014 -1.11319e-014
lhumerus -69.7731 -23.4392 99.1462
lradius 104.076
lwrist -17.6163
lhand -13.4396 6.01487
lfingers 7.12502
lthumb 12.6694 35.6106
rfemur 6.18224 4.28447 22.9518
rtibia 22.0882
rfoot 21.6032 -8.56176
rtoes -16.2434
lfemur -39.3795 -6.38222 -21.4421
ltibia 40.6598
lfoot 14.3583 12.6305
ltoes -7.61537
198
root 12.3518 16.7169 -18.8471 -173.436 54.2821 173.342
lowerback -3.81813 4.48408 -2.60299
upperback -1.20211 6.14719 -2.0189
thorax 0.846037 3.09244 -0.349261
lowerneck -32.7837 -4.36224 -0.00376615
upperneck 41.5781 -6.16867 1.99346
head 24.1439 -1.18431 -0.417287
rclavicle 9.68081e-014 4.77083e-015
rhumerus -49.8452 21.6907 -98.1067
rradius 92.7321
rwrist 10.7823
rhand -9.0385 0.418982
rfingers 7.12502
rthumb 16.9094 -28.8649
lclavicle 9.68081e-014 4.77083e-015
lhumerus -70.1422 -23.6498 99.046
lradius 104.52
lwrist -17.4313
lhand -13.323 6.34957
lfingers 7.12502
lthumb 12.7818 35.9383
rfemur 6.82536 4.45906 22.6386
rtibia 21.9017
rfoot 24.0345 -8.60103
rtoes -13.9214
lfemur -38.76 -6.80524 -21.4435
ltibia 36.4607
lfoot 14.6185 10.9865
ltoes -8.16016
199
root 12.6217 16.7712 -19.0681 -173.398 54.41 173.191
lowerback -4.22845 4.5917 -2.81378
upperback -1.31812 6.32245 -2.15531
thorax 0.946074 3.18292 -0.335158
lowerneck -32.8207 -4.49581 -0.134542
upperneck 41.6367 -6.36253 2.1214
head 24.2404 -1.24594 -0.37613
rclavicle 1.16587e-013 -2.52457e-014
rhumerus -50.6271 22.2515 -98.4216
rradius 93.3021
rwrist 10.7577
rhand -8.88457 0.76161
rfingers 7.12502
rthumb 17.0575 -28.5095
lclavicle 1.16587e-013 -2.52457e-014
lhumerus -70.4663 -23.8073 98.9911
lradius 104.949
lwrist -17.3114
lhand -13.1852 6.69524
lfingers 7.12502
lthumb 12.9146 36.2756
rfemur 7.27685 4.55697 22.4379
rtibia 22.1027
rfoot 26.1217 -8.82835
rtoes -11.9044
lfemur -38.1087 -7.16162 -21.3439
ltibia 32.5326
lfoot 14.903 9.44505
ltoes -8.91566
